<?xml version="1.0" standalone="no"?>
<!DOCTYPE svg PUBLIC "-//W3C//DTD SVG 20010904//EN"
 "http://www.w3.org/TR/2001/REC-SVG-20010904/DTD/svg10.dtd">
<svg version="1.0" xmlns="http://www.w3.org/2000/svg"
 width="560.000000pt" height="446.000000pt" viewBox="0 0 560.000000 446.000000"
 preserveAspectRatio="xMidYMid meet">

<g transform="translate(0.000000,446.000000) scale(0.100000,-0.100000)"
fill="#000000" stroke="none">
<path d="M0 3221 l0 -1239 85 -212 c92 -230 119 -314 160 -490 29 -126 65
-369 65 -437 0 -24 5 -43 10 -43 6 0 10 16 10 35 0 19 4 35 8 35 9 0 26 -115
41 -265 6 -69 9 -78 10 -38 1 59 -23 287 -44 413 -19 111 -42 242 -56 309 -7
35 -7 57 0 64 12 12 41 -45 111 -218 28 -71 55 -134 60 -140 4 -5 20 -44 35
-85 45 -121 125 -301 145 -327 l18 -23 59 51 c83 73 260 154 391 179 43 8 73
25 153 85 55 41 103 75 107 75 4 0 26 -28 49 -62 23 -35 76 -112 118 -173 42
-60 93 -135 113 -165 63 -97 193 -389 224 -505 l12 -45 266 0 265 1 -25 22
c-44 40 -100 107 -100 119 0 7 33 -19 72 -57 81 -78 60 -51 -53 70 -54 58 -92
112 -133 189 -32 59 -56 110 -53 112 2 3 25 0 51 -6 152 -34 394 -20 611 34
136 35 295 50 281 27 -4 -5 4 -7 16 -4 19 4 20 3 8 -7 -12 -9 -10 -10 13 -5
16 3 26 2 24 -2 -3 -4 15 -8 39 -8 53 -1 53 12 -1 31 -113 38 -220 35 -382
-10 -180 -49 -194 -51 -378 -51 -121 0 -200 5 -241 14 -56 13 -64 19 -91 60
-55 83 -192 364 -255 520 -17 41 -35 83 -42 93 -9 15 -8 21 4 28 13 9 13 11 0
20 -13 8 -12 10 2 10 10 0 17 3 17 8 -4 21 3 32 17 32 12 0 15 6 11 22 -5 19
-4 21 6 8 7 -8 18 -16 24 -17 7 -2 52 -25 100 -53 48 -28 105 -56 125 -62 21
-6 73 -41 117 -78 44 -37 93 -77 110 -89 17 -13 28 -27 25 -33 -4 -6 -2 -8 4
-4 6 3 42 -14 80 -39 206 -133 491 -232 643 -223 51 3 54 5 51 27 -3 30 11 76
49 158 15 34 37 90 48 125 35 110 69 196 96 243 27 45 43 60 30 28 -16 -42
-45 -223 -45 -283 1 -61 20 -124 33 -104 3 5 1 34 -5 65 -7 43 -6 81 6 155 33
205 42 236 97 325 28 46 81 131 116 188 76 124 118 217 148 331 13 47 27 85
32 85 4 0 32 -13 61 -28 74 -39 77 -27 5 14 -32 18 -60 34 -62 36 -6 4 -2 86
4 92 6 5 40 -38 87 -110 20 -32 57 -83 82 -113 112 -138 202 -299 245 -441 35
-115 61 -232 61 -278 0 -23 3 -28 9 -18 8 12 11 10 15 -10 23 -111 24 -284 1
-332 -17 -37 -69 -67 -115 -67 -32 0 -37 -9 -18 -28 19 -19 59 -14 93 13 72
54 138 220 161 399 3 26 9 44 14 40 4 -5 24 -61 45 -124 41 -129 75 -311 75
-402 0 -102 -41 -229 -89 -272 -29 -26 -106 -32 -156 -12 l-40 16 35 -31 c19
-16 47 -33 63 -36 39 -8 43 -21 10 -35 -42 -17 -2 -23 53 -8 86 24 159 109
196 228 28 89 30 285 4 422 -16 86 -65 265 -86 315 -5 11 -20 52 -34 90 -14
39 -31 84 -37 100 -7 17 -22 57 -34 90 -12 33 -30 78 -39 100 l-18 39 43 -37
c24 -21 73 -61 109 -91 118 -97 418 -386 428 -414 6 -15 13 -55 16 -90 6 -70
21 -104 77 -179 55 -74 135 -131 289 -206 133 -64 213 -124 264 -197 10 -14
15 -18 12 -7 -7 24 9 21 34 -5 l20 -22 0 64 c0 63 0 63 -51 112 -37 37 -47 53
-40 62 11 13 5 26 -11 26 -5 0 -6 -4 -3 -10 18 -30 -26 12 -242 228 -131 132
-257 255 -280 274 l-42 35 -2 156 c0 87 -5 159 -10 163 -5 3 -9 -60 -9 -152
l0 -158 -157 156 c-190 187 -432 415 -506 478 -4 3 -23 62 -43 131 -20 68 -43
147 -51 174 -8 28 -24 85 -35 127 l-20 78 30 31 c33 34 67 98 77 145 4 16 -8
-2 -24 -41 -37 -83 -76 -128 -91 -105 -37 57 -41 157 -12 265 38 139 47 285
31 488 -8 99 -11 181 -8 183 4 2 17 -20 29 -48 65 -150 117 -433 106 -573 -8
-104 6 -81 33 54 55 274 54 502 -2 671 -9 25 -18 63 -22 85 l-6 40 21 -25 c26
-31 132 -248 154 -315 32 -100 66 -271 66 -335 0 -71 -20 -158 -44 -195 -22
-34 -20 -43 3 -14 54 69 75 245 61 497 -6 100 -17 199 -29 247 -62 251 -270
621 -529 937 l-87 107 -666 0 -665 1 -45 -29 c-24 -15 -66 -50 -92 -76 -32
-32 -51 -45 -56 -37 -4 7 -31 41 -61 77 l-54 65 -59 0 -59 0 59 -64 c32 -35
65 -77 73 -93 8 -15 25 -45 38 -66 13 -21 22 -42 20 -47 -3 -9 -99 99 -183
206 l-50 64 -79 0 -80 0 31 -32 c105 -112 211 -315 213 -406 0 -20 -221 312
-254 381 l-28 57 -836 -2 -837 -3 -40 -72 c-22 -40 -43 -73 -47 -73 -10 0 18
64 48 111 13 22 20 39 15 39 -5 0 -16 -11 -25 -25 -9 -14 -23 -25 -31 -25 -9
0 -21 11 -27 25 -9 19 -19 25 -45 25 l-33 0 0 -1239z m825 1109 c-34 -122 -69
-219 -105 -295 -6 -11 -21 -54 -35 -95 l-24 -75 5 80 c8 127 41 258 86 344 35
67 86 136 94 128 2 -2 -8 -41 -21 -87z m1082 -41 c43 -60 103 -183 103 -213 0
-16 -13 -35 -37 -55 -35 -29 -54 -39 -140 -78 -21 -9 -67 -29 -102 -46 -60
-28 -65 -28 -77 -12 -34 47 -123 278 -124 321 0 7 22 11 58 10 48 0 71 6 144
43 47 23 94 51 104 62 23 25 32 21 71 -32z m-447 -104 c27 -103 95 -340 120
-418 12 -38 20 -73 18 -79 -4 -10 -58 72 -58 87 0 4 -6 21 -14 38 -33 76 -57
147 -72 217 -28 127 -33 163 -33 225 1 68 4 62 39 -70z m-536 -60 c-20 -61
-47 -150 -59 -200 -21 -80 -24 -85 -24 -47 -1 68 28 179 72 275 22 48 41 86
43 84 2 -2 -13 -52 -32 -112z m172 24 c-17 -64 -33 -113 -51 -154 -20 -47 -81
-215 -98 -270 l-16 -50 5 80 c9 138 29 218 85 344 19 42 78 115 86 107 2 -2
-3 -27 -11 -57z m215 -125 c9 -116 4 -244 -11 -244 -10 0 -20 232 -13 308 3
34 8 61 10 59 2 -3 8 -58 14 -123z m-81 -19 c-1 -131 -40 -269 -67 -233 -53
73 -80 258 -48 334 l15 35 50 -28 50 -28 0 -80z m1386 -64 c89 -60 183 -138
305 -252 100 -93 109 -105 93 -116 -10 -7 -30 -13 -45 -13 -25 0 -157 -31
-190 -44 -11 -5 -21 6 -39 46 -13 29 -49 110 -82 180 -32 70 -58 131 -58 134
0 4 -13 29 -30 55 -16 27 -26 49 -21 49 5 0 35 -18 67 -39z m-185 -213 c29
-40 57 -75 60 -78 16 -14 82 -133 99 -178 22 -58 19 -74 -23 -119 -33 -36 -47
-41 -47 -19 0 44 -107 384 -140 447 -19 35 -4 20 51 -53z m698 -228 c66 -55
171 -189 171 -218 0 -5 -19 -17 -41 -28 l-42 -18 -23 29 c-13 17 -24 37 -25
45 0 9 -3 10 -5 3 -3 -6 2 -28 11 -49 8 -20 14 -38 13 -38 -113 -60 -254 -213
-303 -330 -8 -20 -18 -36 -20 -36 -3 0 -5 55 -4 123 0 87 -5 150 -20 222 -23
113 -45 202 -56 227 -5 13 8 24 68 53 75 37 153 62 194 64 13 1 48 -20 82 -49z
m368 -248 c20 -23 34 -45 31 -47 -2 -3 -29 5 -59 16 -30 11 -62 23 -71 26 -25
8 -22 16 13 37 41 24 31 31 -15 10 -19 -10 -38 -16 -40 -13 -2 2 -20 49 -39
104 l-36 100 90 -95 c49 -52 106 -114 126 -138z m-1931 93 c26 -56 84 -160
187 -334 l56 -95 -34 -23 c-19 -13 -37 -23 -41 -23 -8 0 -149 -87 -190 -117
l-31 -23 -4 97 c-9 229 -4 516 9 521 6 2 12 15 12 28 0 37 9 29 36 -31z m1103
-47 c12 -24 37 -90 55 -148 31 -94 33 -107 20 -127 -18 -29 -18 -39 1 -23 9 7
17 11 19 9 16 -17 58 -227 59 -292 l1 -77 17 60 c9 34 19 63 22 67 4 3 15 -15
26 -40 11 -25 36 -60 57 -78 20 -19 53 -49 72 -66 18 -18 44 -33 56 -33 33 0
181 55 205 76 2 2 -2 10 -9 19 -13 15 -11 35 10 115 15 56 5 191 -17 234 -8
17 -27 46 -40 64 -14 19 -21 37 -17 42 17 15 108 40 146 40 80 0 94 -26 107
-192 1 -5 5 -8 9 -8 5 0 19 33 32 73 12 39 27 83 32 97 l9 24 21 -32 c35 -55
51 -179 52 -377 0 -178 -7 -225 -43 -319 -7 -16 -10 -31 -7 -33 6 -6 54 59 76
102 l18 36 10 -48 c28 -130 34 -191 30 -325 -7 -233 -51 -349 -243 -647 -183
-283 -283 -427 -305 -439 -35 -19 -398 -8 -600 18 -398 51 -493 83 -751 253
-153 102 -172 118 -183 153 -7 21 -6 22 56 8 69 -15 94 -17 86 -8 -5 4 -93 26
-157 38 -8 2 -17 9 -19 16 -3 9 2 11 19 6 158 -44 321 -64 375 -46 41 14 30
30 -22 30 -38 0 -145 36 -204 68 -87 48 -180 115 -285 205 l-107 92 50 8 c42
7 58 5 93 -12 74 -36 85 -26 29 27 -63 60 -64 82 -8 152 l41 52 19 -38 c41
-85 148 -164 222 -164 25 0 48 -5 51 -10 4 -6 11 -7 17 -4 7 4 8 2 4 -4 -4 -7
-14 -12 -22 -12 -8 0 -14 -4 -14 -10 0 -5 3 -10 6 -10 6 0 162 103 210 139 32
24 35 48 10 80 -8 11 -8 15 2 18 30 11 -2 132 -53 199 l-26 34 93 1 c77 0 89
2 68 11 -25 11 -25 11 10 18 l35 6 -40 8 c-22 4 -58 11 -80 16 l-40 8 45 2
c35 2 27 5 -35 10 -105 10 -226 -16 -352 -75 -51 -24 -95 -40 -98 -35 -23 36
-47 145 -57 254 l-12 129 28 22 c35 28 166 98 234 124 57 23 57 23 102 -35
150 -194 299 -337 465 -445 82 -53 86 -63 56 -122 -10 -20 -16 -37 -12 -37 13
0 69 105 86 162 l17 57 77 -38 c103 -52 224 -93 264 -89 l32 3 -46 23 c-55 27
-197 157 -240 218 -30 44 -30 44 -20 120 17 117 13 287 -10 465 -17 133 -18
163 -7 170 15 9 42 28 66 46 25 18 27 17 51 -29z m-1363 -213 c-4 -16 -1 -34
9 -48 18 -26 19 -37 3 -37 -6 0 -8 3 -5 7 4 3 0 14 -9 24 -11 12 -14 27 -9 48
4 17 9 31 12 31 3 0 2 -11 -1 -25z m-19 -87 c-3 -7 -5 -2 -5 12 0 14 2 19 5
13 2 -7 2 -19 0 -25z m1878 -14 c14 -30 15 -38 4 -49 -22 -21 -91 -57 -97 -50
-3 3 1 5 9 5 10 1 9 3 -3 11 -29 16 -21 54 17 88 20 17 40 31 44 31 5 0 16
-16 26 -36z m-1804 -124 c11 -52 27 -122 35 -155 l15 -60 -88 -82 c-48 -45
-88 -81 -89 -80 -5 8 19 186 28 204 6 12 8 34 4 50 -4 18 -3 23 2 15 7 -11 10
-9 15 7 3 12 1 21 -4 21 -5 0 -9 7 -9 16 0 9 5 12 11 8 8 -5 10 2 6 22 -3 16
1 41 9 56 13 26 22 56 23 88 2 33 21 -16 42 -110z m1842 -38 c26 -29 41 -117
26 -153 -16 -39 -70 -80 -112 -86 -29 -4 -40 2 -74 34 -50 48 -69 81 -54 96 7
7 16 6 29 -6 28 -25 42 -21 42 13 0 31 17 39 37 19 17 -17 33 -1 33 32 0 63
38 89 73 51z m-823 -330 c64 -60 65 -62 62 -106 -3 -28 -9 -46 -16 -46 -24 0
-150 115 -215 197 -60 74 -136 200 -136 227 0 6 -4 18 -9 26 -5 8 49 -42 120
-111 71 -69 158 -153 194 -187z m-935 33 c15 -44 45 -120 67 -168 22 -48 38
-95 36 -104 -2 -10 -23 -32 -48 -51 -39 -30 -49 -33 -87 -28 -51 7 -54 2 -13
-19 17 -9 30 -21 30 -28 0 -23 -61 -77 -102 -89 -50 -15 -66 -6 -95 53 -21 43
-22 48 -11 201 l11 158 86 85 c47 47 88 82 92 78 4 -5 19 -44 34 -88z m479
-251 c24 -9 19 -30 -15 -58 -39 -33 -52 -33 -77 1 l-20 28 26 17 c28 18 59 23
86 12z m-266 -40 c14 -15 14 -16 -3 -13 -10 2 -20 10 -23 17 -5 17 6 15 26 -4z
m335 -73 c8 -16 20 -25 32 -24 28 2 34 -14 22 -56 -27 -91 -111 -164 -182
-159 -27 2 -39 7 -37 16 1 8 -2 11 -7 8 -5 -3 -20 4 -34 16 -23 20 -24 23 -8
35 14 11 13 12 -9 13 -18 0 -31 9 -43 29 -22 38 -22 64 3 86 18 17 20 16 50
-31 16 -26 30 -52 30 -57 0 -5 7 -4 15 3 8 7 15 23 15 37 0 21 2 22 21 12 30
-16 42 6 23 44 -17 32 -18 30 28 62 30 21 34 22 51 7 10 -9 23 -27 30 -41z
m-651 -155 c15 -11 16 -15 4 -32 -12 -16 -16 -16 -30 -4 -10 7 -22 22 -27 32
-8 15 -6 18 13 18 13 0 31 -7 40 -14z m-551 -209 c6 -22 12 -68 14 -102 2 -35
9 -81 14 -103 10 -37 17 -43 97 -82 46 -23 88 -40 91 -37 3 4 -5 11 -18 16
-86 33 -120 53 -129 73 -5 13 -9 17 -9 10 -1 -7 -5 -11 -10 -8 -4 3 -6 18 -3
32 5 25 6 26 18 9 13 -17 14 -17 20 -1 4 9 13 15 20 12 8 -3 14 -1 14 4 0 5 7
7 15 4 11 -5 14 -1 9 12 -10 34 31 -20 71 -92 30 -54 35 -68 24 -76 -11 -8
-11 -9 1 -5 13 3 89 -85 90 -105 0 -10 -223 106 -268 139 -76 57 -76 57 -111
206 -14 61 -14 123 0 149 11 21 12 21 26 3 7 -11 18 -37 24 -58z m81 -32 c35
-43 60 -85 51 -85 -15 0 -37 19 -30 26 3 4 -13 30 -36 57 -23 28 -35 47 -26
41 9 -5 27 -22 41 -39z m-12 -30 c13 -14 21 -25 18 -25 -2 0 -15 11 -28 25
-13 14 -21 25 -18 25 2 0 15 -11 28 -25z m4202 -781 c1 1 19 -16 38 -38 19
-23 28 -35 20 -29 -11 10 -18 9 -34 -5 l-21 -17 20 24 c16 20 17 23 4 18 -10
-3 -16 0 -15 6 0 7 -3 12 -7 12 -5 0 -15 11 -23 25 l-15 25 4 -28 c3 -18 1
-25 -5 -19 -5 5 -11 22 -12 38 -2 16 -9 28 -16 26 -7 -1 -8 3 -4 9 5 9 16 3
35 -19 15 -17 29 -29 31 -28z m-125 14 c-3 -8 -6 -5 -6 6 -1 11 2 17 5 13 3
-3 4 -12 1 -19z m50 -20 c2 -17 0 -19 -7 -8 -5 8 -6 18 -4 22 8 12 10 10 11
-14z m341 -145 c29 -32 58 -67 64 -78 9 -18 -50 39 -111 108 -48 53 -5 26 47
-30z m-268 12 c13 -14 21 -25 18 -25 -2 0 -15 11 -28 25 -13 14 -21 25 -18 25
2 0 15 -11 28 -25z m160 -50 c11 -13 10 -14 -4 -9 -9 3 -16 10 -16 15 0 13 6
11 20 -6z"/>
<path d="M3157 1688 c-4 -14 -10 -34 -13 -45 -5 -13 -2 -12 10 5 10 12 16 32
14 45 -3 21 -4 20 -11 -5z"/>
<path d="M2660 1431 c8 -5 29 -11 45 -14 l30 -6 -30 14 c-34 16 -72 21 -45 6z"/>
<path d="M2090 2746 c0 -2 8 -10 18 -17 15 -13 16 -12 3 4 -13 16 -21 21 -21
13z"/>
<path d="M3967 1503 c-4 -3 -7 -11 -7 -17 0 -6 5 -5 12 2 6 6 9 14 7 17 -3 3
-9 2 -12 -2z"/>
<path d="M3800 1178 c-36 -49 -79 -106 -97 -126 -45 -53 -31 -54 16 -1 45 50
156 207 150 213 -2 1 -33 -37 -69 -86z"/>
<path d="M3574 898 c-44 -60 -75 -118 -88 -163 -10 -36 -35 -189 -32 -193 7
-6 55 52 67 81 9 22 9 34 1 47 -15 25 11 120 53 190 70 118 70 134 -1 38z"/>
<path d="M1260 843 c0 -4 39 -26 87 -48 47 -21 114 -57 147 -78 42 -27 55 -32
41 -17 -45 51 -275 171 -275 143z"/>
<path d="M325 576 c3 -99 7 -181 10 -184 9 -9 4 270 -5 318 -6 30 -7 -16 -5
-134z"/>
<path d="M5454 701 c20 -22 36 -27 36 -13 0 5 -12 14 -27 21 -28 13 -28 13 -9
-8z"/>
<path d="M5516 652 c-3 -5 15 -18 39 -30 52 -25 60 -16 12 13 -44 27 -45 27
-51 17z"/>
<path d="M1390 399 c0 -5 5 -7 10 -4 6 3 10 8 10 11 0 2 -4 4 -10 4 -5 0 -10
-5 -10 -11z"/>
<path d="M5551 375 c0 -24 9 -60 23 -90 l24 -50 1 77 c1 70 0 76 -18 71 -13
-3 -21 1 -24 14 -3 10 -5 0 -6 -22z"/>
<path d="M318 300 c-4 -36 -10 -108 -12 -160 l-5 -95 15 95 c8 52 13 124 12
160 l-3 65 -7 -65z"/>
<path d="M372 325 c0 -16 2 -22 5 -12 2 9 2 23 0 30 -3 6 -5 -1 -5 -18z"/>
<path d="M720 70 c-23 -23 -26 -40 -7 -40 9 0 9 -2 -1 -9 -24 -15 27 -21 183
-20 l150 0 -61 29 c-61 29 -174 60 -220 60 -13 0 -33 -9 -44 -20z"/>
<path d="M495 49 c-84 -45 -86 -50 -22 -47 56 3 60 5 72 36 17 39 7 41 -50 11z"/>
</g>
</svg>
